<svg xmlns="http://www.w3.org/2000/svg" xmlns:xlink="http://www.w3.org/1999/xlink" viewBox="0 0 261.99 87.86"><defs><style>.cls-1{isolation:isolate;}.cls-2{fill:#007aff;opacity:0.81;}.cls-3{opacity:0.2;}.cls-11,.cls-3,.cls-8{mix-blend-mode:multiply;}.cls-4{fill:url(#Degradado_sin_nombre_67);}.cls-5{fill:url(#Degradado_sin_nombre_38);}.cls-6{fill:url(#Degradado_sin_nombre_38-2);}.cls-7{fill:url(#Degradado_sin_nombre_38-3);}.cls-8{opacity:0.88;}.cls-11,.cls-9{fill:#ba55ff;}.cls-10{fill:url(#Degradado_sin_nombre_29);}.cls-11{opacity:0.7;}</style><radialGradient id="Degradado_sin_nombre_67" cx="130.99" cy="575.6" r="148.09" gradientTransform="translate(0 22.87) scale(1 0.09)" gradientUnits="userSpaceOnUse"><stop offset="0"/><stop offset="1" stop-opacity="0"/></radialGradient><linearGradient id="Degradado_sin_nombre_38" x1="-19.07" y1="-8.38" x2="60.71" y2="69.7" gradientUnits="userSpaceOnUse"><stop offset="0" stop-color="#35029c"/><stop offset="0.5" stop-color="#ba55ff"/><stop offset="0.76" stop-color="#f44b3c"/><stop offset="0.8" stop-color="#f56732"/><stop offset="0.94" stop-color="#fac70e"/><stop offset="1" stop-color="#fced00"/></linearGradient><linearGradient id="Degradado_sin_nombre_38-2" x1="-11.51" y1="-16.71" x2="68.18" y2="61.28" xlink:href="#Degradado_sin_nombre_38"/><linearGradient id="Degradado_sin_nombre_38-3" x1="-15.25" y1="-12.67" x2="64.53" y2="65.4" xlink:href="#Degradado_sin_nombre_38"/><linearGradient id="Degradado_sin_nombre_29" x1="3.92" y1="-7.55" x2="46.39" y2="56.52" gradientUnits="userSpaceOnUse"><stop offset="0" stop-color="#35029c"/><stop offset="0.13" stop-color="#4e12ae"/><stop offset="0.41" stop-color="#7c2ed1"/><stop offset="0.66" stop-color="#9e43ea"/><stop offset="0.86" stop-color="#b350f9"/><stop offset="1" stop-color="#ba55ff"/></linearGradient></defs><g class="cls-1"><g id="Layer_2" data-name="Layer 2"><g id="OBJECTS"><path class="cls-2" d="M65.56,61.69,88.76,0H98l23.51,61.69H110.76l-4.93-13.48h-26L75.06,61.69ZM83.91,37.06h18L93,12Z"/><path class="cls-2" d="M158.33,10.8H131.48V24.05h25.57q6,0,8.13,3.09t2.11,11.5V47.1q0,8.41-2.11,11.5t-8.13,3.09H131.71q-6,0-8.13-3.09t-2.11-11.5V43l8.42-.24v7.3h29V36H133.3q-6,0-8.07-3.09t-2.09-11.5V14.59q0-8.4,2.09-11.5T133.3,0h23.28q5.79,0,8,3t2.19,10.56v1.29l-8.42,3Zm8.42,2.74v4.07l-8.42.19"/><path class="cls-2" d="M171,61.69V0h42V10.51H180.54V24.28h18.94V34.79H180.54V50.08h32.83V61.69Z"/><path class="cls-2" d="M217.11,61.69V0h9.54V50.08h30.77V61.69Z"/><g class="cls-3"><ellipse class="cls-4" cx="130.99" cy="73.57" rx="130.99" ry="14.29"/></g><polygon class="cls-5" points="16.02 23.41 45.11 61.69 49.27 61.69 16.02 18.7 16.02 23.41"/><polygon class="cls-6" points="18.19 3.25 16.02 3.25 16.02 4.81 59.3 61.69 63.46 61.69 18.19 3.25"/><polygon class="cls-7" points="16.02 14.11 52.21 61.69 56.37 61.69 16.02 9.58 16.02 14.11"/><g class="cls-8"><polygon class="cls-9" points="17.76 20.96 16.02 18.7 16.02 23.41 17.76 25.7 17.76 20.96"/><polygon class="cls-9" points="16.02 9.58 16.02 14.11 17.76 16.41 17.76 11.84 16.02 9.58"/><polygon class="cls-9" points="18.19 3.25 16.02 3.25 16.02 4.81 17.2 6.37 20.61 6.37 18.19 3.25"/></g><path class="cls-10" d="M51.53,21v.83c0,5.59-1.89,9.93-5.3,12.69l2.16,2.77c4.1-3.41,6.41-8.73,6.41-15.46V21c0-12.15-7.5-19.7-19.58-19.7h-22V61.69h3.27V4.88H35.22C45.43,4.88,51.53,10.9,51.53,21Z"/><path class="cls-11" d="M35.12,3.25H14.81V61.69h1.66V4.88H35.22c10.21,0,16.31,6,16.31,16.1v.83c0,5.59-1.89,9.93-5.3,12.69l1,1.27c4.17-3.47,6-8.26,6-14.22v-.76C53.19,9.57,46.27,3.25,35.12,3.25Z"/></g></g></g></svg>